PathFileType	4	(X/Y/Z)	/Users/mathieubourgeois/Desktop/Analyse/Traitement/Sujet_04/Data/Transformed_Sujet_04_velo_100.trc
DataRate	CameraRate	NumFrames	NumMarkers	Units	OrigDataRate	OrigDataStartFrame	OrigNumFrames
120.000000	120.000000	4	36	mm	120.000000	1217	1948
Frame#	Time	RFHD			RANE			STRN			LANI			LKNE			T10			RHUM			RWRB			C7			LFWT			LTOE			RTOE			LWRA			LBWT			RBWT			RFWT			LKNI			RKNI			RKNE			LANE			RANI			LHEE			RHEE			LHUM			LRAD			RRAD			RWRA			LWRB			LFHD			LBHD			RBHD			RSHO			LSHO			CLAV			LCAR			RCAR			
		X1	Y1	Z1	X2	Y2	Z2	X3	Y3	Z3	X4	Y4	Z4	X5	Y5	Z5	X6	Y6	Z6	X7	Y7	Z7	X8	Y8	Z8	X9	Y9	Z9	X10	Y10	Z10	X11	Y11	Z11	X12	Y12	Z12	X13	Y13	Z13	X14	Y14	Z14	X15	Y15	Z15	X16	Y16	Z16	X17	Y17	Z17	X18	Y18	Z18	X19	Y19	Z19	X20	Y20	Z20	X21	Y21	Z21	X22	Y22	Z22	X23	Y23	Z23	X24	Y24	Z24	X25	Y25	Z25	X26	Y26	Z26	X27	Y27	Z27	X28	Y28	Z28	X29	Y29	Z29	X30	Y30	Z30	X31	Y31	Z31	X32	Y32	Z32	X33	Y33	Z33	X34	Y34	Z34	X35	Y35	Z35	X36	Y36	Z36	

1218	10.14166666666667	317.8917846679688	1478.144653320312	66.18647003173824	-156.7496948242188	570.2470703125	149.0435180664062	-53.09743118286133	1215.731201171875	-12.5272750854493	-253.7668762207031	311.5936279296875	-138.2912750244141	-91.13432312011716	720.8241577148438	-234.1270141601563	-187.7183685302734	1447.24755859375	-31.63049888610851	86.76377868652341	1071.336059570312	195.1887207031249	315.2854919433594	909.5276489257812	229.4801635742187	77.69349670410156	1502.056762695312	-5.871191501617514	-224.6365661621093	1157.01904296875	-160.5089263916016	-122.9060897827148	158.2892761230469	-163.1079406738282	51.36130142211913	481.9603271484375	74.9980773925781	323.9729614257812	941.3307495117188	-211.4013214111328	-394.5294494628906	1262.20556640625	-104.5316162109376	-411.202392578125	1267.623046875	28.14317893981921	-257.92138671875	1204.13037109375	121.3637008666991	-86.31866455078124	672.2705078125	-118.4224929809571	76.84638977050781	932.4342041015625	44.89278793334956	76.21910095214842	970.67529296875	167.0550842285156	-292.1754760742188	311.5895385742188	-231.0327911376954	-139.4237976074219	572.1465454101562	54.65830612182612	-343.9686889648438	311.6834716796875	-178.0313873291016	-212.8082885742188	561.4155883789062	108.9324493408203	82.1433029174805	1076.971557617188	-240.6256866455079	120.4098052978516	1099.356811523438	-301.3074951171876	129.8252410888672	1090.18212890625	248.2092895507812	324.8218688964844	916.8921508789062	152.3161315917968	285.0565185546876	887.6165161132812	-259.5765991210938	313.6413269042969	1477.704956054688	-66.73116302490239	182.5097961425781	1578.683959960938	-49.99900436401375	190.6664123535156	1568.74951171875	89.3489913940429	95.09445953369139	1421.40234375	157.0695343017577	104.807502746582	1416.24267578125	-173.5764923095704	72.64298248291016	1331.764526367188	-11.76934909820564	400.2220764160157	916.3827514648438	-294.0722351074219	403.1062622070312	934.8211059570312	236.2428131103516	
1219	10.15	317.75927734375	1478.106323242188	65.96610260009761	-146.1369171142578	557.3710327148438	149.3748321533203	-53.47006607055664	1215.898681640625	-12.66399002075203	-263.6240234375	321.829833984375	-138.2760314941407	-87.22482299804685	724.6815185546875	-234.3571166992188	-187.9105834960938	1447.498168945312	-31.35383224487316	86.74081420898435	1071.524658203125	194.8684692382812	315.2294311523438	909.6151733398438	229.3872680664062	77.53037261962891	1502.172241210938	-5.880224704742514	-225.3884124755859	1157.5751953125	-160.3396759033204	-137.3919525146484	164.1759643554688	-162.8802795410157	64.43161010742186	474.8774108886719	74.91119384765624	323.968505859375	941.3910522460938	-211.4064178466797	-395.1764526367188	1262.570434570312	-104.0723190307618	-411.3766174316406	1267.831298828125	28.5826606750487	-257.914794921875	1204.360229492188	121.8297271728515	-78.34359741210936	677.658447265625	-121.6546859741212	75.78585052490234	926.9820556640625	43.92046356201167	74.8593063354492	965.412109375	165.6575469970703	-301.8409729003906	323.0170288085938	-231.0225677490235	-128.9449615478516	559.7167358398438	55.01108932495112	-353.7694396972656	324.701171875	-178.0509185791016	-201.9581146240234	546.90673828125	109.4834213256835	82.21437835693362	1077.176025390625	-240.5379486083985	120.4999542236329	1099.536743164062	-301.2300109863282	129.8090515136718	1090.369995117188	247.9680938720703	323.4380798339844	916.884521484375	155.1109313964843	285.0325622558594	887.7346801757812	-259.5859375	313.4215698242188	1477.649047851562	-66.95004272460942	182.3373565673828	1578.706909179688	-50.12518692016609	190.6056823730469	1568.765502929688	89.20830535888665	95.03654479980467	1421.583618164062	156.9376068115234	104.6397705078125	1416.370971679688	-173.3845977783204	72.42863464355469	1331.694946289062	-11.99100971221931	400.2249450683594	916.4071655273438	-294.10107421875	403.0299682617187	934.8634643554688	236.2277069091797	
1220	10.15833333333333	317.5485534667969	1478.024780273438	65.61476135253902	-136.1978759765625	543.5936279296875	149.4972229003906	-53.95172119140625	1215.966796875	-12.83216190338143	-272.5899353027344	333.3866577148438	-138.2229766845704	-82.40892028808591	729.2404174804688	-234.6308898925782	-188.2579193115234	1447.6279296875	-31.0541229248048	86.7316970825195	1071.76416015625	194.5441741943359	315.1502380371094	909.7100219726562	229.2277374267578	77.24574279785156	1502.2158203125	-6.000545978546225	-226.2122802734375	1158.061645507812	-160.1598510742188	-152.517349243164	173.1328125	-162.8767700195313	76.8113555908203	466.67724609375	74.28943634033202	323.9651184082031	941.4544067382812	-211.4974060058594	-395.9221496582031	1262.763427734375	-103.5358047485353	-411.6814880371094	1267.760375976562	29.15483474731433	-257.839599609375	1204.203979492188	122.3427276611327	-76.39469146728514	681.5587768554688	-121.2524719238282	74.26336669921875	919.9046630859375	42.97037506103511	69.39372253417967	960.4734497070312	166.1444091796874	-310.4863586425781	335.6559448242188	-231.1407165527344	-119.371208190918	546.33447265625	55.12469100952143	-362.4931335449219	338.9413146972656	-178.2227783203126	-191.7462158203125	531.5377807617188	109.7618026733398	82.21375274658206	1077.332397460938	-240.5893859863282	120.5844955444336	1099.705444335938	-301.2356872558594	129.786376953125	1090.592895507812	247.6439361572265	323.0747985839844	916.9810791015625	155.596939086914	285.0067749023438	887.811767578125	-259.6554565429688	313.0728759765625	1477.567993164062	-67.30580902099614	182.0505828857422	1578.675415039062	-50.39133834838875	190.4413909912109	1568.768310546875	88.96588897705071	94.92213439941405	1421.757080078125	156.6888580322265	104.3416061401367	1416.509887695312	-173.3532867431641	72.15420532226562	1331.596069335938	-12.28037738800056	400.2153625488282	916.4275512695312	-294.1825561523438	402.9463500976562	934.9424438476562	236.1269989013672	
1221	10.16666666666667	317.2203674316406	1477.948608398438	65.14289855957027	-126.8883666992188	528.9561767578125	149.4207153320312	-54.44372177124023	1216.003784179688	-13.02299594879159	-280.4017944335938	345.9884033203125	-138.5256652832032	-77.8996658325195	734.6559448242188	-235.1746215820313	-188.6901702880859	1447.621826171875	-30.75142478942882	86.7119445800781	1071.986328125	194.269302368164	315.0961303710938	909.8284301757812	229.0226898193359	76.85834503173828	1502.234252929688	-6.242760181427085	-227.1271057128906	1158.505737304688	-159.9786376953126	-165.2206420898437	182.5064697265625	-162.7835845947266	87.85037231445311	457.6106567382812	74.23891448974608	323.8963317871094	941.5145263671875	-211.6911773681641	-397.0812072753906	1263.354858398438	-103.1072921752931	-412.0437622070312	1267.365356445312	29.74603271484362	-257.6981201171875	1203.720458984375	122.8461837768554	-71.68797302246092	687.0189819335938	-121.5606384277344	72.19336700439453	911.57763671875	42.05458831787104	66.97606658935545	952.118896484375	164.8824157714843	-318.0686950683594	349.4702758789062	-231.3688049316407	-111.1337585449219	532.1084594726562	55.35307312011714	-370.0754089355469	354.3681945800781	-178.4592590332032	-182.1231994628906	515.5115966796875	109.7631683349609	82.17971801757815	1077.418823242188	-240.755599975586	120.5774765014649	1099.85302734375	-301.3663635253907	129.7898559570312	1090.825927734375	247.3222503662109	323.2970581054688	917.136962890625	154.7723846435547	284.9262695312501	887.9121704101562	-259.8269348144531	312.6649780273438	1477.462890625	-67.76562500000004	181.6958923339844	1578.633544921875	-50.74904251098641	190.1960144042969	1568.732299804688	88.60593414306634	94.73683929443358	1421.962036132812	156.302261352539	103.8177795410156	1416.60986328125	-173.4486389160157	71.80661773681641	1331.521850585938	-12.53581333160408	400.1386413574219	916.4348754882812	-294.3595275878906	402.8646240234374	935.0545043945312	235.9245452880859	
